HIERARCHY
ROOT joint_Root
{
	OFFSET 0.0 0.0 0.0
	CHANNELS 6 Xposition Yposition Zposition Zrotation Xrotation Yrotation 
	JOINT Hips
	{
		OFFSET -17.1583 93.1646 452.98
		CHANNELS 6 Xposition Yposition Zposition Zrotation Xrotation Yrotation 
		JOINT Spine
		{
			OFFSET 15.7357 0.0 0.0
			CHANNELS 6 Xposition Yposition Zposition Zrotation Xrotation Yrotation 
			JOINT Chest
			{
				OFFSET 8.98455 -0.406207 0.0
				CHANNELS 6 Xposition Yposition Zposition Zrotation Xrotation Yrotation 
				JOINT Neck
				{
					OFFSET 16.3773 0.0 0.0
					CHANNELS 6 Xposition Yposition Zposition Zrotation Xrotation Yrotation 
					JOINT Head
					{
						OFFSET 6.45672 0.0 0.0
						CHANNELS 6 Xposition Yposition Zposition Zrotation Xrotation Yrotation 
						End Site
						{
							OFFSET 0.0 0.0 0.0
						}
					}
				}
				JOINT Shoulder_L
				{
					OFFSET 12.9942 -0.242716 4.98039
					CHANNELS 6 Xposition Yposition Zposition Zrotation Xrotation Yrotation 
					JOINT UpperArm_L
					{
						OFFSET 5.34809 0.0 0.0
						CHANNELS 6 Xposition Yposition Zposition Zrotation Xrotation Yrotation 
						JOINT LowerArm_L
						{
							OFFSET 24.3286 1.87007e-05 0.0
							CHANNELS 6 Xposition Yposition Zposition Zrotation Xrotation Yrotation 
							JOINT Hand_L
							{
								OFFSET 22.2916 0.0 0.0
								CHANNELS 6 Xposition Yposition Zposition Zrotation Xrotation Yrotation 
								End Site
								{
									OFFSET 0.0 0.0 0.0
								}
							}
						}
					}
				}
				JOINT Shoulder_R
				{
					OFFSET 12.9945 -0.242716 -4.98039
					CHANNELS 6 Xposition Yposition Zposition Zrotation Xrotation Yrotation 
					JOINT UpperArm_R
					{
						OFFSET -5.34813 0.0 0.0
						CHANNELS 6 Xposition Yposition Zposition Zrotation Xrotation Yrotation 
						JOINT LowerArm_R
						{
							OFFSET -24.3289 0.000322201 0.0
							CHANNELS 6 Xposition Yposition Zposition Zrotation Xrotation Yrotation 
							JOINT Hand_R
							{
								OFFSET -22.2915 -0.000108084 0.0
								CHANNELS 6 Xposition Yposition Zposition Zrotation Xrotation Yrotation 
								End Site
								{
									OFFSET 0.0 0.0 0.0
								}
							}
						}
					}
				}
			}
		}
		JOINT UpperLeg_L
		{
			OFFSET -2.19248 -6.46944 0.0
			CHANNELS 6 Xposition Yposition Zposition Zrotation Xrotation Yrotation 
			JOINT LowerLeg_L
			{
				OFFSET 39.0811 0.0 -1.23785e-05
				CHANNELS 6 Xposition Yposition Zposition Zrotation Xrotation Yrotation 
				JOINT Foot_L
				{
					OFFSET 40.9854 0.0 -1.26872e-05
					CHANNELS 6 Xposition Yposition Zposition Zrotation Xrotation Yrotation 
					JOINT Toes_L
					{
						OFFSET 11.7543 0.0 0.0
						CHANNELS 6 Xposition Yposition Zposition Zrotation Xrotation Yrotation 
						End Site
						{
							OFFSET 0.0 0.0 0.0
						}
					}
				}
			}
		}
		JOINT UpperLeg_R
		{
			OFFSET -2.19251 6.46944 0.0
			CHANNELS 6 Xposition Yposition Zposition Zrotation Xrotation Yrotation 
			JOINT LowerLeg_R
			{
				OFFSET -39.0811 -0.00228153 -0.0401928
				CHANNELS 6 Xposition Yposition Zposition Zrotation Xrotation Yrotation 
				JOINT Foot_R
				{
					OFFSET -40.9854 0.0 0.0
					CHANNELS 6 Xposition Yposition Zposition Zrotation Xrotation Yrotation 
					JOINT Toes_R
					{
						OFFSET -11.7543 0.0 0.0
						CHANNELS 6 Xposition Yposition Zposition Zrotation Xrotation Yrotation 
						End Site
						{
							OFFSET 0.0 0.0 0.0
						}
					}
				}
			}
		}
	}
}
MOTION
Frames:	4
Frame Time:	0.0333333
0.000000 0.000000 0.000000 0.000000 0.000000 -0.000000 1.300290 93.321900 -0.043350 90.566700 2.409080 -0.490022 15.735700 0.000005 -0.000001 73.307500 87.171500 -63.686500 8.984550 -0.406207 -0.000000 -2.069550 -2.445820 19.198600 16.377300 -0.000001 -0.000001 -2.349830 -0.462667 10.644800 6.456720 -0.000001 -0.000000 -5.192050 -0.453239 9.969630 12.994200 -0.242716 4.980390 -87.304200 -5.909430 -65.424100 5.348090 -0.000007 -0.000001 -26.861500 -48.016900 -47.568000 24.328600 0.000019 0.000005 0.660090 28.315100 -1.391330 22.291600 -0.000001 0.000005 43.644800 4.476080 16.993500 12.994500 -0.242716 -4.980390 89.345100 2.214240 -73.518800 -5.348130 -0.000001 -0.000004 -59.542400 2.873610 -7.228070 -24.328900 0.000322 -0.000009 2.290130 7.459110 -17.129300 -22.291500 -0.000108 -0.000004 8.275260 5.231640 1.913120 -2.192480 -6.469440 -0.000000 -176.812000 -7.860620 -0.301061 39.081100 -0.000007 -0.000012 0.018233 -0.092600 11.139700 40.985400 -0.000006 -0.000013 -0.097155 17.136900 -66.949300 11.754300 -0.000000 0.000003 -0.000456 0.174971 -9.479670 -2.192510 6.469440 -0.000001 173.604000 6.016720 -178.388000 -39.081100 -0.002282 -0.040193 0.009690 -0.038120 9.457520 -40.985400 0.000008 0.000006 -8.478010 3.001720 -66.644300 -11.754300 -0.000006 -0.000006 -0.010586 0.275633 -5.373930
0.000000 0.000000 0.000000 0.000000 0.000000 -0.000000 1.330430 93.318000 -0.052710 90.614900 2.488940 -0.404930 15.735700 0.000005 -0.000001 73.698700 87.156600 -64.089300 8.984550 -0.406207 -0.000000 -2.033210 -2.413110 19.176600 16.377300 -0.000001 -0.000001 -2.335210 -0.553081 10.612500 6.456720 -0.000001 -0.000000 -5.055860 -0.540978 9.957610 12.994200 -0.242716 4.980390 -87.335700 -5.831810 -65.393400 5.348090 -0.000007 -0.000001 -26.641300 -47.669300 -47.390100 24.328600 0.000019 0.000005 0.716925 28.437700 -1.505120 22.291600 -0.000001 0.000005 43.372500 4.490460 16.757400 12.994500 -0.242716 -4.980390 89.346200 2.210530 -73.519300 -5.348130 -0.000001 -0.000004 -59.616500 3.040840 -7.162640 -24.328900 0.000322 -0.000009 2.315490 7.621680 -16.961900 -22.291500 -0.000108 -0.000004 8.244870 5.230980 1.930100 -2.192480 -6.469440 -0.000000 -176.865000 -7.869070 -0.237328 39.081100 -0.000007 -0.000012 0.018198 -0.092236 11.161300 40.985400 -0.000006 -0.000013 -0.094695 17.208200 -66.913300 11.754300 -0.000000 0.000003 -0.000313 0.172738 -9.570360 -2.192510 6.469440 -0.000001 173.527000 6.037840 -178.310000 -39.081100 -0.002282 -0.040193 0.009987 -0.039676 9.511680 -40.985400 0.000008 0.000006 -8.405060 2.985950 -66.715300 -11.754300 -0.000006 -0.000006 -0.010594 0.275688 -5.371690
0.000000 0.000000 0.000000 0.000000 0.000000 -0.000000 1.374860 93.300600 -0.053150 90.656600 2.623290 -0.263931 15.735700 0.000005 -0.000001 73.825800 87.122600 -64.222700 8.984550 -0.406207 -0.000000 -1.964490 -2.413670 19.165100 16.377300 -0.000001 -0.000001 -2.256810 -0.600524 10.662400 6.456720 -0.000001 -0.000000 -5.040570 -0.600411 9.861390 12.994200 -0.242716 4.980390 -87.345700 -5.811470 -65.399100 5.348090 -0.000007 -0.000001 -26.566300 -47.402300 -47.276900 24.328600 0.000019 0.000005 0.746223 28.630500 -1.556950 22.291600 -0.000001 0.000005 43.293400 4.494860 16.684800 12.994500 -0.242716 -4.980390 89.344400 2.216280 -73.517300 -5.348130 -0.000001 -0.000004 -59.647800 3.131260 -7.079970 -24.328900 0.000322 -0.000009 2.296410 7.615320 -16.843200 -22.291500 -0.000108 -0.000004 8.215380 5.231790 1.909270 -2.192480 -6.469440 -0.000000 -176.936000 -7.826920 -0.161923 39.081100 -0.000007 -0.000012 0.020914 -0.104726 11.293700 40.985400 -0.000006 -0.000013 0.206708 17.245300 -67.099700 11.754300 -0.000000 0.000003 -0.000465 0.175123 -9.473480 -2.192510 6.469440 -0.000001 173.462000 6.130200 -178.267000 -39.081100 -0.002282 -0.040193 0.010825 -0.043467 9.771020 -40.985400 0.000008 0.000006 -8.284370 2.930470 -66.900900 -11.754300 -0.000006 -0.000006 -0.010792 0.277128 -5.312780
0.000000 0.000000 0.000000 0.000000 0.000000 -0.000000 1.411110 93.298700 -0.054012 90.672100 2.785460 -0.187186 15.735700 0.000005 -0.000001 73.628100 87.099500 -64.027400 8.984550 -0.406207 -0.000000 -1.923280 -2.442120 19.160700 16.377300 -0.000001 -0.000001 -2.178730 -0.604670 10.635500 6.456720 -0.000001 -0.000000 -5.049090 -0.640439 9.965090 12.994200 -0.242716 4.980390 -87.359200 -5.772350 -65.363900 5.348090 -0.000007 -0.000001 -26.727300 -47.366200 -47.472500 24.328600 0.000019 0.000005 0.714620 28.651100 -1.490050 22.291600 -0.000001 0.000005 43.066100 4.496030 16.665800 12.994500 -0.242716 -4.980390 89.328600 2.268460 -73.508400 -5.348130 -0.000001 -0.000004 -59.636700 3.213920 -7.061910 -24.328900 0.000322 -0.000009 2.280060 7.635070 -16.689300 -22.291500 -0.000108 -0.000004 8.257430 5.231540 1.915830 -2.192480 -6.469440 -0.000000 -176.951000 -7.854290 -0.132506 39.081100 -0.000007 -0.000012 0.020686 -0.103007 11.355700 40.985400 -0.000006 -0.000013 0.235441 17.430000 -67.107200 11.754300 -0.000000 0.000003 -0.000333 0.173052 -9.557620 -2.192510 6.469440 -0.000001 173.410000 6.147410 -178.134000 -39.081100 -0.002282 -0.040193 0.010284 -0.040532 9.722690 -40.985400 0.000008 0.000006 -8.414930 2.839280 -66.859200 -11.754300 -0.000006 -0.000006 -0.010450 0.274634 -5.414800
